<svg xmlns="http://www.w3.org/2000/svg" viewBox="0 0 256 256" fill="none">
  <rect width="256" height="256" rx="56" fill="#FFF4E7" />
  <path
    d="M56 110C56 86.804 74.804 68 98 68H158C181.196 68 200 86.804 200 110V122C200 158.451 170.451 188 134 188H122C85.549 188 56 158.451 56 122V110Z"
    fill="#F3D0A5"
  />
  <path
    d="M82 112C82 105.373 87.373 100 94 100H162C168.627 100 174 105.373 174 112V120C174 145.405 153.405 166 128 166C102.595 166 82 145.405 82 120V112Z"
    fill="#C6532D"
  />
  <path
    d="M94 102C97.8 89.2 105 82 115 80C121.667 78.667 126.667 79.667 130 83C132.667 75.667 138 70.667 146 68C159 63.667 171 66.333 182 76"
    stroke="#A32812"
    stroke-linecap="round"
    stroke-width="12"
  />
  <path
    d="M80 184H176"
    stroke="#4B2A14"
    stroke-linecap="round"
    stroke-width="12"
  />
</svg>

